<svg xmlns="http://www.w3.org/2000/svg" xmlns:xlink="http://www.w3.org/1999/xlink" style="display: none;">

<symbol id="search" viewBox="0 0 183.792 183.792">
<path d="M54.734,9.053C39.12,18.067,27.95,32.624,23.284,50.039c-4.667,17.415-2.271,35.606,6.743,51.22
	c12.023,20.823,34.441,33.759,58.508,33.759c7.599,0,15.139-1.308,22.287-3.818l30.364,52.592l21.65-12.5l-30.359-52.583
	c10.255-8.774,17.638-20.411,21.207-33.73c4.666-17.415,2.27-35.605-6.744-51.22C134.918,12.936,112.499,0,88.433,0
	C76.645,0,64.992,3.13,54.734,9.053z M125.29,46.259c5.676,9.831,7.184,21.285,4.246,32.25c-2.938,10.965-9.971,20.13-19.802,25.806
	c-6.462,3.731-13.793,5.703-21.199,5.703c-15.163,0-29.286-8.146-36.857-21.259c-5.676-9.831-7.184-21.284-4.245-32.25
	c2.938-10.965,9.971-20.13,19.802-25.807C73.696,26.972,81.027,25,88.433,25C103.597,25,117.719,33.146,125.29,46.259z"/>
</symbol>


<symbol id="shop" viewBox="0 0 460.327 460.327">
<g id="XMLID_450_">
	<g>
		<g>
			<path d="M367.75,136.106h-28.339v35.143c0,22.453-18.202,40.655-40.655,40.655s-40.655-18.201-40.655-40.655v-35.143h-55.877
				v35.143c0,22.453-18.202,40.655-40.655,40.655s-40.655-18.201-40.655-40.655v-35.143H92.576c-7.089,0-12.835,5.746-12.835,12.835
				v298.551c0,7.089,5.746,12.835,12.835,12.835H367.75c7.089,0,12.835-5.746,12.835-12.835V148.94
				C380.586,141.852,374.839,136.106,367.75,136.106z"/>
			<path d="M161.571,191.576c11.227,0,20.327-9.101,20.327-20.327V88.921c0-26.614,21.652-48.266,48.266-48.266
				c26.614,0,48.266,21.652,48.266,48.266v82.328c0,11.227,9.101,20.327,20.327,20.327c11.227,0,20.327-9.101,20.327-20.327V88.921
				C319.085,39.889,279.195,0,230.164,0s-88.921,39.889-88.921,88.921v82.328C141.243,182.475,150.344,191.576,161.571,191.576z"/>
		</g>
	</g>
</g>
</symbol>

<symbol id="heart" viewBox="0 0 206.333 206.333">
<path d="M206.333,76.952c0,25.365-13.967,46.069-42.7,63.297c-36.253,21.737-54.063,47.905-54.239,48.167
	c-1.393,2.076-3.729,3.321-6.228,3.321c-2.497,0-4.83-1.243-6.223-3.314C96.671,188.02,78.66,161.81,42.7,140.249
	C13.967,123.021,0,102.316,0,76.952c0-30.228,19.701-62.354,56.211-62.354c24.457,0,39.282,10.829,46.956,18.941
	c7.674-8.113,22.499-18.941,46.956-18.941C186.633,14.597,206.333,46.724,206.333,76.952z"/>
</symbol>

<symbol id="free-shipping" viewBox="0 0 35.632 35.632">
<g>
	<path d="M20.777,5.002h8.539l0.713,1.13h-8.537L20.777,5.002z M24.679,4.271L23.71,2.671H12.116l0.969,1.599H24.679z M19.132,8.507
		l-1.475-2.804H0l1.474,2.804H19.132z M35.632,24.513v4.838h-3.037c-0.346,2.045-2.123,3.609-4.266,3.609
		c-2.142,0-3.921-1.564-4.265-3.609h-9.728c-0.346,2.045-2.123,3.609-4.266,3.609c-2.142,0-3.92-1.564-4.266-3.609H5.188v-7.336
		h10.871l-1.475-2.801H5.188v-2.021l-2.81-0.012l-0.961-1.604l3.771,0.017V9.991h18.978v2.802h7.896L35.632,24.513z M12.368,28.63
		c0-1.266-1.026-2.293-2.292-2.293c-1.265,0-2.292,1.027-2.292,2.293c0,1.264,1.027,2.293,2.292,2.293
		C11.341,30.923,12.368,29.894,12.368,28.63z M30.625,28.63c0-1.266-1.029-2.293-2.293-2.293s-2.293,1.027-2.293,2.293
		c0,1.264,1.029,2.293,2.293,2.293S30.625,29.894,30.625,28.63z M33.595,24.816l-3.036-9.983h-4.351v10.028
		c0.627-0.354,1.353-0.561,2.121-0.561c1.93,0,3.565,1.27,4.125,3.014h1.141V24.816L33.595,24.816z"/>
</g>

</symbol>
<symbol id="cod" viewBox="0 0 490.766 490.766">
<g>
	<path d="M472.554,319.199c-9.4-0.7-28.8,9.8-34.1,12.5c-18.9,9.5-45.2,24.4-62.5,36.3c-1.2,0.8-2.8,1.9-4,2.7
		c-7.8,5-16,8.3-25.1,10.3c-50.2,10.7-123.3,11.8-123.3,11.8l-4.3,0.2c-3.2,0.2-6.1-2.1-6.5-5.2c-0.5-3.4,2-6.6,5.6-6.9l108.7-10.3
		c12-1.3,21.5-12.5,20.2-25.1s-12.9-21.8-24.9-20.5l-96.7-1.2c-6.6-0.1-17.1-1.7-23.4-3.6c-62.3-18.2-97.5-1.2-116.2,6.8
		c-4.2-6.9-12.1-11.4-20.9-10.8l-41.7,2.8c-13.9,0.9-24.3,12.5-23.4,25.9l6.7,92.6c1,13.4,13,23.5,26.9,22.5l41.7-2.8
		c8.8-0.6,16-6,19.1-13.4l183.2,7.9c20.4,2.2,39.5-0.3,57.5-9.7l5.2-2.7l138.5-81c6.8-4,11.6-10.9,11.9-18.5
		C491.054,330.499,485.754,320.199,472.554,319.199z M48.954,438.099c-7.8,0-14.2-6.1-14.2-13.7s6.4-13.7,14.2-13.7
		s14.2,6.1,14.2,13.7S56.754,438.099,48.954,438.099z M369.554,351.099c0.2-2.5,0.2-5.1-0.1-7.7c-0.3-3.3-1.1-6.4-2.1-9.4
		c0.1-0.2,0.2-0.4,0.2-0.6c14.6-8,43.2-21.8,58.8-27.9c7.8-3.1,15.5-2.9,22.6,1.9c-5.6,2-10.8,4.5-15.7,6.9
		c-16.4,8.2-45.3,23.9-59.4,33.8C372.454,349.099,370.954,350.099,369.554,351.099z M411.354,296.199c-11.3,5-33,12.6-43.3,18.3
		l-7,3.8c-0.7,0.4-1.3,0.8-1.9,1.3c-3.1-3.7-6.8-6.8-10.9-9.3c9.6-5.1,31-12,40.7-15.8
		C396.754,291.399,404.254,291.599,411.354,296.199z M256.054,64.599c-29.7,0-53.7,24.1-53.7,53.7s24.1,53.7,53.7,53.7
		c29.7,0,53.7-24.1,53.7-53.7S285.754,64.599,256.054,64.599z M271.454,139.499c-2.3,2.8-5.4,4.8-9,5.7c-1.6,0.4-2.2,1.2-2.2,2.9
		c0.1,1.6,0,3.2,0,4.8c0,1.4-0.7,2.2-2.1,2.2c-1.7,0-3.4,0-5.1,0c-1.5,0-2.2-0.9-2.2-2.3c0-1.2,0-2.3,0-3.5c0-2.6-0.1-2.7-2.6-3.1
		c-3.1-0.5-6.2-1.2-9.1-2.6c-2.3-1.1-2.5-1.7-1.8-4c0.5-1.8,1-3.5,1.5-5.3c0.6-2,1.2-2.3,3-1.3c3.2,1.7,6.6,2.6,10.1,3
		c2.3,0.3,4.5,0.1,6.6-0.9c3.9-1.7,4.6-6.3,1.2-9.1c-1.1-0.9-2.4-1.6-3.8-2.2c-3.5-1.5-7.1-2.7-10.3-4.6c-5.3-3.2-8.7-7.5-8.3-14
		c0.4-7.3,4.6-11.9,11.3-14.3c2.8-1,2.8-1,2.8-3.9c0-1,0-2,0-2.9c0.1-2.2,0.4-2.5,2.6-2.6c0.7,0,1.3,0,2,0c4.6,0,4.6,0,4.6,4.6
		c0,3.3,0,3.3,3.3,3.8c2.5,0.4,4.9,1.1,7.2,2.1c1.3,0.6,1.8,1.4,1.4,2.8c-0.6,2-1.1,4-1.8,6c-0.6,1.9-1.2,2.1-3,1.3
		c-3.6-1.7-7.4-2.5-11.4-2.3c-1,0.1-2.1,0.2-3,0.6c-3.4,1.5-4,5.3-1.1,7.6c1.5,1.2,3.2,2,4.9,2.8c3,1.3,6.1,2.5,9,4.1
		C275.554,120.099,277.954,131.599,271.454,139.499z M349.154,118.299c0,8.2-6.7,14.9-14.9,14.9c-8.2,0-14.9-6.7-14.9-14.9
		s6.7-14.9,14.9-14.9C342.454,103.399,349.154,110.099,349.154,118.299z M192.854,118.299c0,8.2-6.7,14.9-14.9,14.9
		s-14.9-6.7-14.9-14.9s6.7-14.9,14.9-14.9C186.154,103.399,192.854,110.099,192.854,118.299z M373.054,30.699h-234
		c-13.5,0-24.5,11-24.5,24.5v126.2c0,13.5,11,24.5,24.5,24.5h234c13.5,0,24.5-11,24.5-24.5v-126.2
		C397.554,41.699,386.554,30.699,373.054,30.699z M376.654,157.899c-2-0.5-4-0.8-6.1-0.8c-13.7,0-24.8,11.1-24.8,24.8
		c0,1,0.1,2.1,0.2,3.1h-181.7c0.3-1.5,0.4-3,0.4-4.6c0-13.7-11.1-24.8-24.8-24.8c-1.5,0-2.9,0.1-4.4,0.4v-75.4
		c1.4,0.3,2.9,0.4,4.4,0.4c13.7,0,24.8-11.1,24.8-24.8c0-1.6-0.1-3.1-0.4-4.6h182.2c-0.5,1.9-0.8,4-0.8,6.1
		c0,13.7,11.1,24.8,24.8,24.8c2.1,0,4.2-0.3,6.1-0.8v76.2H376.654z M114.954,232.999c0-5.8,4.7-10.5,10.5-10.5h261.7
		c5.8,0,10.5,4.7,10.5,10.5s-4.7,10.5-10.5,10.5h-261.8C119.654,243.499,114.954,238.799,114.954,232.999z M114.954,270.999
		c0-5.8,4.7-10.5,10.5-10.5h261.7c5.8,0,10.5,4.7,10.5,10.5s-4.7,10.5-10.5,10.5h-261.8
		C119.654,281.499,114.954,276.799,114.954,270.999z"/>
</g>

</symbol>
<symbol id="money-back" viewBox="0 0 407.747 407.747">
<g>
	<path d="M229.559,186.253c-8.321-0.667-16.477,1.008-23.717,4.761l-30.512-35.829c2.72-0.77,5.584-1.062,8.488-0.833
		c6.401,0.514,12.22,3.488,16.384,8.378c3.579,4.205,9.893,4.71,14.097,1.13c4.205-3.58,4.711-9.892,1.13-14.097
		c-7.627-8.957-18.286-14.407-30.013-15.347c-8.331-0.672-16.483,1.005-23.72,4.759l-4.484-5.266
		c-3.582-4.205-9.892-4.711-14.097-1.13s-4.711,9.893-1.13,14.097l4.495,5.277c-11.887,16.09-11.628,38.852,1.887,54.721
		c7.627,8.957,18.286,14.407,30.013,15.347c8.329,0.67,16.481-1.006,23.718-4.759l30.513,35.829c-2.718,0.769-5.58,1.06-8.488,0.831
		c-6.402-0.514-12.221-3.488-16.385-8.378c-3.581-4.205-9.893-4.711-14.097-1.13c-4.205,3.581-4.711,9.893-1.13,14.097
		c7.628,8.957,18.287,14.407,30.014,15.347c1.201,0.097,2.397,0.145,3.59,0.145c7.072,0,13.938-1.688,20.132-4.899l4.482,5.263
		c1.979,2.323,4.789,3.517,7.618,3.517c2.292,0,4.597-0.784,6.479-2.387c4.205-3.581,4.711-9.893,1.13-14.097l-4.486-5.268
		c4.857-6.547,7.809-14.33,8.477-22.658c0.939-11.727-2.743-23.117-10.371-32.073C251.944,192.642,241.285,187.192,229.559,186.253z
		 M179.976,202.286c-6.401-0.514-12.22-3.488-16.384-8.378c-6.283-7.377-7.316-17.482-3.48-25.745l28.351,33.291
		C185.742,202.224,182.878,202.516,179.976,202.286z M219.474,207.021c2.721-0.77,5.584-1.062,8.487-0.833
		c6.402,0.514,12.221,3.488,16.385,8.378s6.175,11.107,5.662,17.509c-0.233,2.904-0.977,5.686-2.172,8.25L219.474,207.021z"/>
	<path d="M316.342,108.537c-52.769-61.961-146.109-69.44-208.074-16.673c-30.016,25.563-48.28,61.284-51.43,100.584
		c-3.148,39.3,9.195,77.474,34.758,107.489c25.563,30.017,61.283,48.281,100.584,51.431c4.024,0.322,8.035,0.482,12.029,0.482
		c35.002,0,68.519-12.296,95.46-35.24C361.632,263.841,369.111,170.5,316.342,108.537z M280.218,293.77
		c-23.916,20.367-54.329,30.206-85.643,27.693c-31.312-2.509-59.772-17.062-80.14-40.978c-20.367-23.915-30.202-54.33-27.693-85.643
		c2.509-31.312,17.062-59.772,40.977-80.14c22.096-18.817,49.189-28.017,76.163-28.017c33.292,0,66.394,14.028,89.62,41.301
		C335.546,177.357,329.587,251.726,280.218,293.77z"/>
	<path d="M369.41,85.104l12.509,3.634c5.302,1.54,10.852-1.51,12.393-6.814c1.54-5.304-1.511-10.852-6.814-12.393l-42-12.199
		c-3.023-0.876-6.279-0.282-8.794,1.606c-2.515,1.89-3.995,4.852-3.995,7.997v46.199c0,5.522,4.478,10,10,10s10-4.478,10-10v-17.01
		c55.961,76.876,44.049,185.445-29.521,248.1c-29.297,24.949-64.974,39.888-103.172,43.199c-5.503,0.478-9.576,5.324-9.1,10.826
		c0.452,5.209,4.819,9.138,9.951,9.138c0.29,0,0.582-0.013,0.875-0.038c42.367-3.673,81.93-20.236,114.412-47.898
		C417.493,290.181,430.85,170.298,369.41,85.104z"/>
	<path d="M185.572,387.187c-47.468-4.767-90.649-27.4-121.591-63.732c-41.11-48.272-54.412-113.291-35.585-173.926
		c1.638-5.274-1.31-10.878-6.584-12.516c-5.276-1.637-10.878,1.311-12.516,6.584c-20.873,67.22-6.122,139.304,39.458,192.824
		c34.308,40.284,82.187,65.38,134.819,70.666c0.34,0.034,0.677,0.051,1.011,0.051c5.073,0,9.421-3.847,9.938-9.002
		C195.075,392.641,191.067,387.739,185.572,387.187z"/>
	<path d="M28.417,121.25c1.505,0.808,3.125,1.191,4.722,1.191c3.564,0,7.015-1.911,8.819-5.271c2.86-5.327,6.022-10.569,9.396-15.58
		c3.086-4.581,1.873-10.795-2.708-13.88c-4.581-3.086-10.795-1.874-13.88,2.708c-3.745,5.561-7.254,11.378-10.43,17.291
		C21.725,112.574,23.551,118.636,28.417,121.25z"/>
	<path d="M78.272,66.636c2.292,0,4.597-0.784,6.479-2.387c35.486-30.22,80.659-45.748,127.193-43.714
		c5.512,0.251,10.185-4.036,10.426-9.555c0.241-5.518-4.037-10.186-9.555-10.426C161.227-1.696,111.128,15.516,71.784,49.023
		c-4.205,3.581-4.711,9.893-1.13,14.097C72.633,65.443,75.443,66.636,78.272,66.636z"/>
</g>
</symbol>
<symbol id="right-arrow" viewBox="0 0 476.213 476.213">
<polygon points="345.606,107.5 324.394,128.713 418.787,223.107 0,223.107 0,253.107 418.787,253.107 324.394,347.5 
	345.606,368.713 476.213,238.106 "/>
</symbol>

<symbol id="facebook" viewBox="0 0 310 310">
<g id="XMLID_834_">
	<path id="XMLID_835_" d="M81.703,165.106h33.981V305c0,2.762,2.238,5,5,5h57.616c2.762,0,5-2.238,5-5V165.765h39.064
		c2.54,0,4.677-1.906,4.967-4.429l5.933-51.502c0.163-1.417-0.286-2.836-1.234-3.899c-0.949-1.064-2.307-1.673-3.732-1.673h-44.996
		V71.978c0-9.732,5.24-14.667,15.576-14.667c1.473,0,29.42,0,29.42,0c2.762,0,5-2.239,5-5V5.037c0-2.762-2.238-5-5-5h-40.545
		C187.467,0.023,186.832,0,185.896,0c-7.035,0-31.488,1.381-50.804,19.151c-21.402,19.692-18.427,43.27-17.716,47.358v37.752H81.703
		c-2.762,0-5,2.238-5,5v50.844C76.703,162.867,78.941,165.106,81.703,165.106z"/>
</g>

</symbol>

<symbol id="youtube" viewBox="0 0 310 310">
<g id="XMLID_822_">
	<path id="XMLID_823_" d="M297.917,64.645c-11.19-13.302-31.85-18.728-71.306-18.728H83.386c-40.359,0-61.369,5.776-72.517,19.938
		C0,79.663,0,100.008,0,128.166v53.669c0,54.551,12.896,82.248,83.386,82.248h143.226c34.216,0,53.176-4.788,65.442-16.527
		C304.633,235.518,310,215.863,310,181.835v-53.669C310,98.471,309.159,78.006,297.917,64.645z M199.021,162.41l-65.038,33.991
		c-1.454,0.76-3.044,1.137-4.632,1.137c-1.798,0-3.592-0.484-5.181-1.446c-2.992-1.813-4.819-5.056-4.819-8.554v-67.764
		c0-3.492,1.822-6.732,4.808-8.546c2.987-1.814,6.702-1.938,9.801-0.328l65.038,33.772c3.309,1.718,5.387,5.134,5.392,8.861
		C204.394,157.263,202.325,160.684,199.021,162.41z"/>
</g>

</symbol>
<symbol id="twitter" viewBox="0 0 310 310">
<g id="XMLID_826_">
	<path id="XMLID_827_" d="M302.973,57.388c-4.87,2.16-9.877,3.983-14.993,5.463c6.057-6.85,10.675-14.91,13.494-23.73
		c0.632-1.977-0.023-4.141-1.648-5.434c-1.623-1.294-3.878-1.449-5.665-0.39c-10.865,6.444-22.587,11.075-34.878,13.783
		c-12.381-12.098-29.197-18.983-46.581-18.983c-36.695,0-66.549,29.853-66.549,66.547c0,2.89,0.183,5.764,0.545,8.598
		C101.163,99.244,58.83,76.863,29.76,41.204c-1.036-1.271-2.632-1.956-4.266-1.825c-1.635,0.128-3.104,1.05-3.93,2.467
		c-5.896,10.117-9.013,21.688-9.013,33.461c0,16.035,5.725,31.249,15.838,43.137c-3.075-1.065-6.059-2.396-8.907-3.977
		c-1.529-0.851-3.395-0.838-4.914,0.033c-1.52,0.871-2.473,2.473-2.513,4.224c-0.007,0.295-0.007,0.59-0.007,0.889
		c0,23.935,12.882,45.484,32.577,57.229c-1.692-0.169-3.383-0.414-5.063-0.735c-1.732-0.331-3.513,0.276-4.681,1.597
		c-1.17,1.32-1.557,3.16-1.018,4.84c7.29,22.76,26.059,39.501,48.749,44.605c-18.819,11.787-40.34,17.961-62.932,17.961
		c-4.714,0-9.455-0.277-14.095-0.826c-2.305-0.274-4.509,1.087-5.294,3.279c-0.785,2.193,0.047,4.638,2.008,5.895
		c29.023,18.609,62.582,28.445,97.047,28.445c67.754,0,110.139-31.95,133.764-58.753c29.46-33.421,46.356-77.658,46.356-121.367
		c0-1.826-0.028-3.67-0.084-5.508c11.623-8.757,21.63-19.355,29.773-31.536c1.237-1.85,1.103-4.295-0.33-5.998
		C307.394,57.037,305.009,56.486,302.973,57.388z"/>
</g>
</symbol>
</svg>
