<svg xmlns="http://www.w3.org/2000/svg" xmlns:xlink="http://www.w3.org/1999/xlink" style="display: none;">

<symbol id="search" viewBox="0 0 183.792 183.792">
<path d="M54.734,9.053C39.12,18.067,27.95,32.624,23.284,50.039c-4.667,17.415-2.271,35.606,6.743,51.22
	c12.023,20.823,34.441,33.759,58.508,33.759c7.599,0,15.139-1.308,22.287-3.818l30.364,52.592l21.65-12.5l-30.359-52.583
	c10.255-8.774,17.638-20.411,21.207-33.73c4.666-17.415,2.27-35.605-6.744-51.22C134.918,12.936,112.499,0,88.433,0
	C76.645,0,64.992,3.13,54.734,9.053z M125.29,46.259c5.676,9.831,7.184,21.285,4.246,32.25c-2.938,10.965-9.971,20.13-19.802,25.806
	c-6.462,3.731-13.793,5.703-21.199,5.703c-15.163,0-29.286-8.146-36.857-21.259c-5.676-9.831-7.184-21.284-4.245-32.25
	c2.938-10.965,9.971-20.13,19.802-25.807C73.696,26.972,81.027,25,88.433,25C103.597,25,117.719,33.146,125.29,46.259z"/>
</symbol>


<symbol id="shop" viewBox="0 0 460.327 460.327">
<g id="XMLID_450_">
	<g>
		<g>
			<path d="M367.75,136.106h-28.339v35.143c0,22.453-18.202,40.655-40.655,40.655s-40.655-18.201-40.655-40.655v-35.143h-55.877
				v35.143c0,22.453-18.202,40.655-40.655,40.655s-40.655-18.201-40.655-40.655v-35.143H92.576c-7.089,0-12.835,5.746-12.835,12.835
				v298.551c0,7.089,5.746,12.835,12.835,12.835H367.75c7.089,0,12.835-5.746,12.835-12.835V148.94
				C380.586,141.852,374.839,136.106,367.75,136.106z"/>
			<path d="M161.571,191.576c11.227,0,20.327-9.101,20.327-20.327V88.921c0-26.614,21.652-48.266,48.266-48.266
				c26.614,0,48.266,21.652,48.266,48.266v82.328c0,11.227,9.101,20.327,20.327,20.327c11.227,0,20.327-9.101,20.327-20.327V88.921
				C319.085,39.889,279.195,0,230.164,0s-88.921,39.889-88.921,88.921v82.328C141.243,182.475,150.344,191.576,161.571,191.576z"/>
		</g>
	</g>
</g>
</symbol>

<symbol id="heart" viewBox="0 0 206.333 206.333">
<path d="M206.333,76.952c0,25.365-13.967,46.069-42.7,63.297c-36.253,21.737-54.063,47.905-54.239,48.167
	c-1.393,2.076-3.729,3.321-6.228,3.321c-2.497,0-4.83-1.243-6.223-3.314C96.671,188.02,78.66,161.81,42.7,140.249
	C13.967,123.021,0,102.316,0,76.952c0-30.228,19.701-62.354,56.211-62.354c24.457,0,39.282,10.829,46.956,18.941
	c7.674-8.113,22.499-18.941,46.956-18.941C186.633,14.597,206.333,46.724,206.333,76.952z"/>

</symbol>
</svg>
